<svg width="25" height="24" viewBox="0 0 25 24" fill="none" xmlns="http://www.w3.org/2000/svg">
<path d="M12.5 2C6.98 2 2.5 6.48 2.5 12C2.5 17.52 6.98 22 12.5 22C18.02 22 22.5 17.52 22.5 12C22.5 6.48 18.02 2 12.5 2ZM17.75 12.33C17.75 12.74 17.41 13.08 17 13.08C16.59 13.08 16.25 12.74 16.25 12.33V9.31L8.53 17.03C8.38 17.18 8.19 17.25 8 17.25C7.81 17.25 7.62 17.18 7.47 17.03C7.18 16.74 7.18 16.26 7.47 15.97L15.19 8.25H12.17C11.76 8.25 11.42 7.91 11.42 7.5C11.42 7.09 11.76 6.75 12.17 6.75H17C17.41 6.75 17.75 7.09 17.75 7.5V12.33Z" fill="#292D32"/>
</svg>
