<svg width="514" height="45" viewBox="0 0 514 45" fill="none" xmlns="http://www.w3.org/2000/svg">
<g clip-path="url(#clip0_66_863)">
<path d="M0.829987 22.1699H44.16" stroke="#F0F0F0" stroke-miterlimit="10"/>
<path d="M22.5 0.5V43.83" stroke="#F0F0F0" stroke-miterlimit="10"/>
<path d="M37.81 6.84961L7.17999 37.4796" stroke="#F0F0F0" stroke-miterlimit="10"/>
<path d="M37.81 37.4796L7.17999 6.84961" stroke="#F0F0F0" stroke-miterlimit="10"/>
<path d="M74.18 22.1592H182.77" stroke="#F0F0F0" stroke-miterlimit="10"/>
<path d="M182.77 22.1595C173.68 22.1595 161.19 14.8395 161.02 5.76953" stroke="#F0F0F0" stroke-miterlimit="10"/>
<path d="M182.77 22.1592C173.67 22.1592 161.17 29.4892 161.02 38.5692" stroke="#F0F0F0" stroke-miterlimit="10"/>
<path d="M232.08 43.84C245.125 43.84 255.7 34.138 255.7 22.17C255.7 10.202 245.125 0.5 232.08 0.5C219.035 0.5 208.46 10.202 208.46 22.17C208.46 34.138 219.035 43.84 232.08 43.84Z" stroke="#F0F0F0" stroke-miterlimit="10"/>
<path d="M232.08 43.84C237.713 43.84 242.28 34.138 242.28 22.17C242.28 10.202 237.713 0.5 232.08 0.5C226.447 0.5 221.88 10.202 221.88 22.17C221.88 34.138 226.447 43.84 232.08 43.84Z" stroke="#F0F0F0" stroke-miterlimit="10"/>
<path d="M210.12 14.1396H254.03" stroke="#F0F0F0" stroke-miterlimit="10"/>
<path d="M210.12 30.1602H254.03" stroke="#F0F0F0" stroke-miterlimit="10"/>
<path d="M406.3 10.1396C406.3 23.4296 397.5 34.1996 386.64 34.1996C375.78 34.1996 366.98 23.4296 366.98 10.1396" stroke="#F0F0F0" stroke-miterlimit="10"/>
<path d="M366.98 10.1396C366.98 23.4296 358.18 34.1996 347.32 34.1996C336.46 34.1996 327.66 23.4296 327.66 10.1396" stroke="#F0F0F0" stroke-miterlimit="10"/>
<path d="M445.61 10.1396C445.61 23.4296 436.81 34.1996 425.95 34.1996C415.09 34.1996 406.29 23.4296 406.29 10.1396" stroke="#F0F0F0" stroke-miterlimit="10"/>
<path d="M327.66 10.1396C327.66 23.4296 318.86 34.1996 308 34.1996C297.14 34.1996 288.34 23.4296 288.34 10.1396" stroke="#F0F0F0" stroke-miterlimit="10"/>
<path d="M469.84 22.1699H513.17" stroke="#F0F0F0" stroke-miterlimit="10"/>
<path d="M491.51 0.5V43.83" stroke="#F0F0F0" stroke-miterlimit="10"/>
<path d="M506.83 6.84961L476.19 37.4796" stroke="#F0F0F0" stroke-miterlimit="10"/>
<path d="M506.83 37.4796L476.19 6.84961" stroke="#F0F0F0" stroke-miterlimit="10"/>
</g>
<defs>
<clipPath id="clip0_66_863">
<rect width="512.34" height="44.33" fill="white" transform="translate(0.829987)"/>
</clipPath>
</defs>
</svg>
