<svg width="327" height="105" viewBox="0 0 327 105" fill="none" xmlns="http://www.w3.org/2000/svg">
<g clip-path="url(#clip0_18_90)">
<path d="M56.8968 103.632C87.5587 103.632 112.415 80.7428 112.415 52.5078C112.415 24.2728 87.5587 1.38379 56.8968 1.38379C26.2349 1.38379 1.37854 24.2728 1.37854 52.5078C1.37854 80.7428 26.2349 103.632 56.8968 103.632Z" stroke="#71C16A" stroke-width="1.75" stroke-miterlimit="10"/>
<path d="M56.8968 103.632C70.134 103.632 80.8649 80.7428 80.8649 52.5078C80.8649 24.2728 70.134 1.38379 56.8968 1.38379C43.6596 1.38379 32.9287 24.2728 32.9287 52.5078C32.9287 80.7428 43.6596 103.632 56.8968 103.632Z" stroke="#71C16A" stroke-width="1.75" stroke-miterlimit="10"/>
<path d="M5.26355 33.5586H108.467" stroke="#71C16A" stroke-width="1.75" stroke-miterlimit="10"/>
<path d="M5.26355 71.3628H108.467" stroke="#71C16A" stroke-width="1.75" stroke-miterlimit="10"/>
<path d="M263.257 103.412C263.257 83.8806 277.215 68.0449 294.447 68.0449C311.664 68.0449 325.637 83.8806 325.637 103.412" stroke="#CEE6C1" stroke-width="1.75" stroke-miterlimit="10"/>
<path d="M200.878 103.412C200.878 83.8806 214.836 68.0449 232.068 68.0449C249.284 68.0449 263.257 83.8806 263.257 103.412" stroke="#CEE6C1" stroke-width="1.75" stroke-miterlimit="10"/>
<path d="M138.514 103.412C138.514 83.8806 152.472 68.0449 169.704 68.0449C186.935 68.0449 200.893 83.8806 200.893 103.412" stroke="#CEE6C1" stroke-width="1.75" stroke-miterlimit="10"/>
<path d="M170.957 55.4798C184.826 55.4798 196.068 44.1937 196.068 30.2717C196.068 16.3496 184.826 5.06348 170.957 5.06348C157.088 5.06348 145.845 16.3496 145.845 30.2717C145.845 44.1937 157.088 55.4798 170.957 55.4798Z" stroke="#33A852" stroke-width="1.75" stroke-miterlimit="10"/>
<path d="M233.211 55.4798C247.08 55.4798 258.323 44.1937 258.323 30.2717C258.323 16.3496 247.08 5.06348 233.211 5.06348C219.342 5.06348 208.099 16.3496 208.099 30.2717C208.099 44.1937 219.342 55.4798 233.211 55.4798Z" stroke="#33A852" stroke-width="1.75" stroke-miterlimit="10"/>
<path d="M294.338 55.4798C308.206 55.4798 319.449 44.1937 319.449 30.2717C319.449 16.3496 308.206 5.06348 294.338 5.06348C280.469 5.06348 269.226 16.3496 269.226 30.2717C269.226 44.1937 280.469 55.4798 294.338 55.4798Z" stroke="#33A852" stroke-width="1.75" stroke-miterlimit="10"/>
</g>
<defs>
<clipPath id="clip0_18_90">
<rect width="327" height="105" fill="white"/>
</clipPath>
</defs>
</svg>
