<svg width="45" height="278" viewBox="0 0 45 278" fill="none" xmlns="http://www.w3.org/2000/svg">
<path d="M10.0158 107.355C27.6848 107.355 42.0158 95.7159 42.0158 81.355C42.0158 66.994 27.6925 55.355 10.0158 55.355" stroke="#F0F0F0" stroke-linejoin="round"/>
<path d="M10.0158 55.355C27.6848 55.355 42.0158 43.7159 42.0158 29.355C42.0158 14.994 27.6925 3.35498 10.0158 3.35498" stroke="#F0F0F0" stroke-linejoin="round"/>
<path d="M10.0158 160.355C27.6848 160.355 42.0158 148.492 42.0158 133.855C42.0158 119.218 27.6925 107.355 10.0158 107.355" stroke="#F0F0F0" stroke-linejoin="round"/>
<path d="M10.0158 212.355C27.6848 212.355 42.0158 200.716 42.0158 186.355C42.0158 171.994 27.6925 160.355 10.0158 160.355" stroke="#F0F0F0" stroke-linejoin="round"/>
<path d="M9.51581 265.845C27.1848 265.845 41.5158 254.206 41.5158 239.845C41.5158 225.484 27.1925 213.845 9.51581 213.845" stroke="#F0F0F0" stroke-linejoin="round"/>
</svg>
