<svg width="171" height="27" viewBox="0 0 171 27" fill="none" xmlns="http://www.w3.org/2000/svg">
<g clip-path="url(#clip0_69_1182)">
<path d="M104.97 21.1657C104.97 10.3258 112.131 1.53375 120.966 1.53375C129.802 1.53375 136.963 10.3211 136.963 21.1657" stroke="#F0F0F0" stroke-linejoin="round"/>
<path d="M136.963 21.1657C136.963 10.3258 144.124 1.53375 152.959 1.53375C161.795 1.53375 168.956 10.3211 168.956 21.1657" stroke="#F0F0F0" stroke-linejoin="round"/>
<path d="M72.3614 21.1657C72.3614 10.3258 79.6601 1.53375 88.6656 1.53375C97.6711 1.53375 104.97 10.3211 104.97 21.1657" stroke="#F0F0F0" stroke-linejoin="round"/>
<path d="M40.3683 21.1657C40.3683 10.3258 47.5292 1.53375 56.3648 1.53375C65.2004 1.53375 72.3613 10.3211 72.3613 21.1657" stroke="#F0F0F0" stroke-linejoin="round"/>
<path d="M7.45861 21.4724C7.45861 10.6325 14.6195 1.84052 23.4551 1.84052C32.2907 1.84052 39.4517 10.6278 39.4517 21.4724" stroke="#F0F0F0" stroke-linejoin="round"/>
</g>
<defs>
<clipPath id="clip0_69_1182">
<rect width="27" height="170" fill="white" transform="matrix(0 1 -1 0 170.5 0)"/>
</clipPath>
</defs>
</svg>
