<svg width="171" height="27" viewBox="0 0 171 27" fill="none" xmlns="http://www.w3.org/2000/svg">
<g clip-path="url(#clip0_69_1192)">
<path d="M104.97 5.83441C104.97 16.6743 112.131 25.4663 120.966 25.4663C129.802 25.4663 136.963 16.679 136.963 5.83441" stroke="#F0F0F0" stroke-linejoin="round"/>
<path d="M136.963 5.83441C136.963 16.6743 144.124 25.4663 152.959 25.4663C161.795 25.4663 168.956 16.679 168.956 5.83441" stroke="#F0F0F0" stroke-linejoin="round"/>
<path d="M72.3614 5.83441C72.3614 16.6743 79.6601 25.4663 88.6656 25.4663C97.6711 25.4663 104.97 16.679 104.97 5.83441" stroke="#F0F0F0" stroke-linejoin="round"/>
<path d="M40.3683 5.83441C40.3683 16.6743 47.5292 25.4663 56.3648 25.4663C65.2004 25.4663 72.3613 16.679 72.3613 5.83441" stroke="#F0F0F0" stroke-linejoin="round"/>
<path d="M7.45861 5.52764C7.45861 16.3675 14.6195 25.1595 23.4551 25.1595C32.2907 25.1595 39.4517 16.3722 39.4517 5.52764" stroke="#F0F0F0" stroke-linejoin="round"/>
</g>
<defs>
<clipPath id="clip0_69_1192">
<rect width="27" height="170" fill="white" transform="matrix(0 -1 -1 0 170.5 27)"/>
</clipPath>
</defs>
</svg>
