<svg width="44" height="278" viewBox="0 0 44 278" fill="none" xmlns="http://www.w3.org/2000/svg">
<path d="M34.5 107.355C16.831 107.355 2.5 95.7159 2.5 81.355C2.5 66.994 16.8233 55.355 34.5 55.355" stroke="#F0F0F0" stroke-linejoin="round"/>
<path d="M34.5 55.355C16.831 55.355 2.5 43.7159 2.5 29.355C2.5 14.994 16.8233 3.35498 34.5 3.35498" stroke="#F0F0F0" stroke-linejoin="round"/>
<path d="M34.5 160.355C16.831 160.355 2.5 148.492 2.5 133.855C2.5 119.218 16.8233 107.355 34.5 107.355" stroke="#F0F0F0" stroke-linejoin="round"/>
<path d="M34.5 212.355C16.831 212.355 2.5 200.716 2.5 186.355C2.5 171.994 16.8233 160.355 34.5 160.355" stroke="#F0F0F0" stroke-linejoin="round"/>
<path d="M35 265.845C17.331 265.845 3 254.206 3 239.845C3 225.484 17.3233 213.845 35 213.845" stroke="#F0F0F0" stroke-linejoin="round"/>
</svg>
