<svg width="25" height="25" viewBox="0 0 25 25" fill="none" xmlns="http://www.w3.org/2000/svg">
<path d="M12.5 2.52539C6.98 2.52539 2.5 7.00539 2.5 12.5254C2.5 18.0454 6.98 22.5254 12.5 22.5254C18.02 22.5254 22.5 18.0454 22.5 12.5254C22.5 7.00539 18.02 2.52539 12.5 2.52539ZM16.53 13.0554L13.53 16.0554C13.38 16.2054 13.19 16.2754 13 16.2754C12.81 16.2754 12.62 16.2054 12.47 16.0554C12.18 15.7654 12.18 15.2854 12.47 14.9954L14.19 13.2754H9C8.59 13.2754 8.25 12.9354 8.25 12.5254C8.25 12.1154 8.59 11.7754 9 11.7754H14.19L12.47 10.0554C12.18 9.76539 12.18 9.28539 12.47 8.99539C12.76 8.70539 13.24 8.70539 13.53 8.99539L16.53 11.9954C16.82 12.2854 16.82 12.7654 16.53 13.0554Z" fill="#292D32"/>
</svg>
