<svg width="20" height="21" viewBox="0 0 20 21" fill="none" xmlns="http://www.w3.org/2000/svg">
<path d="M5 15.5V8.5M19 6.5V14.5C19 15.8261 18.4732 17.0979 17.5355 18.0355C16.5979 18.9732 15.3261 19.5 14 19.5H6C4.67392 19.5 3.40215 18.9732 2.46447 18.0355C1.52678 17.0979 1 15.8261 1 14.5V6.5C1 5.17392 1.52678 3.90215 2.46447 2.96447C3.40215 2.02678 4.67392 1.5 6 1.5H14C15.3261 1.5 16.5979 2.02678 17.5355 2.96447C18.4732 3.90215 19 5.17392 19 6.5Z" stroke="white" stroke-width="1.5" stroke-linecap="round" stroke-linejoin="round"/>
<path d="M9 15.5V12.25M9 12.25V8.50002M9 12.25C9 8.50002 15 8.50002 15 12.25V15.5M5 5.51002L5.01 5.49902" stroke="white" stroke-width="1.5" stroke-linecap="round" stroke-linejoin="round"/>
</svg>
